# AST/ASF file generated using VICON BodyLanguage
# -----------------------------------------------
:version 1.10
:name VICON
:units
  mass 1.0
  length 0.45
  angle deg
:documentation
   .ast/.asf automatically generated from VICON data using
   VICON BodyBuilder and BodyLanguage model FoxedUp or BRILLIANT.MOD
:root
   order TX TY TZ RX RY RZ
   axis XYZ
   position 0 0 0  
   orientation 0 0 0 
:bonedata
  begin
     id 1 
     name lhipjoint
     direction 0.603808 -0.713975 0.35448 
     length 2.2025 
     axis 0 0 0  XYZ
  end
  begin
     id 2 
     name lfemur
     direction 0.34202 -0.939693 0  
     length 6.55877  
     axis 0 0 20  XYZ
    dof rx ry rz
    limits (-160.0 20.0)
           (-70.0 70.0)
           (-60.0 70.0)
  end
  begin
     id 3 
     name ltibia
     direction 0.34202 -0.939693 0   
     length 6.80302   
     axis 0 0 20   XYZ
    dof rx
    limits (-10.0 170.0)
  end
  begin
     id 4 
     name lfoot
     direction 0.091848 -0.25235 0.963267   
     length 2.03446   
     axis -90 7.62852e-016 20   XYZ
    dof rx rz
    limits (-45.0 90.0)
           (-70.0 20.0)
  end
  begin
     id 5 
     name ltoes
     direction 1.53608e-011 -4.21925e-011 1   
     length 1.02033   
     axis -90 7.62852e-016 20   XYZ
    dof rx
    limits (-90.0 20.0)
  end
  begin
     id 6 
     name rhipjoint
     direction -0.587285 -0.724947 0.359928   
     length 2.16916  
     axis 0 0 0  XYZ 
  end
  begin
     id 7 
     name rfemur
     direction -0.34202 -0.939693 0   
     length 6.43173   
     axis 0 0 -20   XYZ
    dof rx ry rz
    limits (-160.0 20.0)
           (-70.0 70.0)
           (-70.0 60.0)
  end
  begin
     id 8 
     name rtibia
     direction -0.34202 -0.939693 0   
     length 6.70662   
     axis 0 0 -20   XYZ
    dof rx
    limits (-10.0 170.0)
 end
 begin
     id 9 
     name rfoot
     direction -0.11854 -0.325686 0.938018   
     length 2.0773  
     axis -90 -7.62852e-016 -20   XYZ
    dof rx rz
    limits (-45.0 90.0)
           (-20.0 70.0)
  end
  begin
     id 10 
     name rtoes
     direction -1.53547e-011 -4.21838e-011 1   
     length 1.03267   
     axis -90 -7.62852e-016 -20   XYZ
    dof rx
    limits (-90.0 20.0)
  end
  begin
     id 11 
     name lowerback
     direction -0.0286554 0.999539 0.0100613   
     length 2.08751   
     axis 0 0 0   XYZ
    dof rx ry rz
    limits (-20.0 45.0)
           (-30.0 30.0)
           (-30.0 30.0)
  end
  begin
     id 12 
     name upperback
     direction 0.0227093 0.999705 -0.00860929   
     length 2.08517   
     axis 0 0 0   XYZ
    dof rx ry rz
    limits (-20.0 45.0)
           (-30.0 30.0)
           (-30.0 30.0)
  end
  begin
     id 13 
     name thorax
     direction 0.0351627 0.999285 -0.013892   
     length 2.08412   
     axis 0 0 0   XYZ
    dof rx ry rz
    limits (-20.0 45.0)
           (-30.0 30.0)
           (-30.0 30.0)
  end
  begin
     id 14 
     name lowerneck
     direction -0.0696283 0.997344 0.0213922   
     length 1.44164   
     axis 0 0 0   XYZ
    dof rx ry rz
    limits (-20.0 45.0)
           (-30.0 30.0)
           (-30.0 30.0)
  end
  begin
     id 15 
     name upperneck
     direction 0.0531 0.990412 -0.127531   
     length 1.45022   
     axis 0 0 0   XYZ
    dof rx ry rz
    limits (-20.0 45.0)
           (-30.0 30.0)
           (-30.0 30.0)
  end
  begin
     id 16
     name head
     direction 0.0188154 0.998548 -0.0504727  
     length 1.45845  
     axis 0 0 0   XYZ
    dof rx ry rz
    limits (-20.0 45.0)
           (-30.0 30.0)
           (-30.0 30.0)
  end
  begin
     id 17 
     name lclavicle
     direction 0.961559 0.260051 0.088188  
     length 2.86057  
     axis 0 0 0   XYZ
    dof ry rz
    limits (-20.0 10.0)
           (0.0 20.0)
  end
  begin
     id 18 
     name lhumerus
     direction 1 -4.48959e-011 2.88185e-027   
     length 4.36901   
     axis 180 -30 -90   XYZ
    dof rx ry rz
    limits (-60.0 90.0)
           (-90.0 90.0)
           (-90.0 90.0)
  end
  begin
     id 19
     name lradius
     direction 1 -4.48965e-011 -3.92618e-028   
     length 3.21737   
     axis 180 -30 -90   XYZ
    dof rx
    limits (-10.0 170.0)
  end
  begin
     id 20
     name lwrist
     direction 1 -4.49037e-011 2.57246e-027   
     length 1.60869   
     axis -1.61769e-015 90 90   XYZ
    dof ry
    limits (-180.0 0.0)
 end
  begin
     id 21 
     name lhand
     direction 1 -4.48807e-011 5.12958e-027   
     length 0.564313   
     axis -3.27988e-015 90 90   XYZ
    dof rx rz
    limits (-90.0 90.0)
           (-45.0 45.0)
  end
  begin
     id 22 
     name lfingers
     direction 1 -4.48879e-011 1.02687e-026   
     length 0.454963   
     axis -6.5598e-015 90 90   XYZ
    dof rx
    limits (0.0 90.0)
  end
  begin
     id 23
     name lthumb
     direction 0.707107 -6.3475e-011 0.707107   
     length 0.653239   
     axis -90 45 2.19363e-014   XYZ
    dof rx rz
    limits (-45.0 45.0)
           (-45.0 45.0)
  end
  begin
     id 24 
     name rclavicle
     direction -0.954677 0.253915 0.155304   
     length 3.11497  
     axis 0 0 0   XYZ 
    dof ry rz
    limits (-10.0 20.0)
           (-20.0 0.0)
  end
  begin
     id 25 
     name rhumerus
     direction -1 -4.48958e-011 -8.20169e-028  
     length 4.34118   
     axis 180 30 90   XYZ
    dof rx ry rz
    limits (-90.0 60.0)
           (-90.0 90.0)
           (-90.0 90.0)
  end
  begin
     id 26 
     name rradius
     direction -1 -4.48978e-011 1.5676e-027   
     length 3.09531   
     axis 180 30 90   XYZ
    dof rx
    limits (-10.0 170.0)
  end
  begin
     id 27 
     name rwrist
     direction -1 -4.49001e-011 2.57123e-027   
     length 1.54765   
     axis -1.61769e-015 -90 -90   XYZ
    dof ry
    limits (-180.0 0.0)
  end
  begin
     id 28
     name rhand
     direction -1 -4.48847e-011 5.13225e-027   
     length 0.597446   
     axis -3.27988e-015 -90 -90   XYZ
    dof rx rz
    limits (-90.0 90.0)
           (-45.0 45.0)
  end
  begin
     id 29
     name rfingers
     direction -1 -4.49094e-011 1.02974e-026   
     length 0.481677   
     axis -6.5598e-015 -90 -90   XYZ
    dof rx
    limits (0.0 90.0)
  end
  begin
     id 30
     name rthumb
     direction -0.707107 -6.34859e-011 0.707107   
     length 0.691594   
     axis -90 -45 -2.19363e-014   XYZ
    dof rx rz
    limits (-45.0 45.0)
           (-45.0 45.0)
  end
:hierarchy
  begin
    root lhipjoint rhipjoint lowerback
    lhipjoint lfemur
    lfemur ltibia
    ltibia lfoot
    lfoot ltoes
    rhipjoint rfemur
    rfemur rtibia
    rtibia rfoot
    rfoot rtoes
    lowerback upperback
    upperback thorax
    thorax lowerneck lclavicle rclavicle
    lowerneck upperneck
    upperneck head
    lclavicle lhumerus
    lhumerus lradius
    lradius lwrist
    lwrist lhand lthumb
    lhand lfingers
    rclavicle rhumerus
    rhumerus rradius
    rradius rwrist
    rwrist rhand rthumb
    rhand rfingers
  end

#!OML:ASF I:\Acrobat_Osman\acrobat\cartwheel_test 2\Patient 1\Session 1\acrobat.ASF
:FULLY-SPECIFIED
:DEGREES
2393
root 11.9317 14.6902 -10.4938 197.366 -152.807 -540.466
lowerback -2.01294 3.15542 -0.821367
upperback -1.14233 4.22283 -0.630008
thorax -0.0559663 2.11418 -0.105413
lowerneck -7.29614 -1.30114 -5.67877
upperneck 12.4641 -0.935856 -1.00258
head 4.97899 -0.791973 0.555444
rclavicle 1.0056e-013 -8.74653e-015
rhumerus -41.3539 46.2524 -107.72
rradius 98.0248
rwrist -66.844
rhand -20.723 -350.027
rfingers 7.12502
rthumb 5.64181 -379.932
lclavicle 1.0056e-013 -8.74653e-015
lhumerus -213.435 204.351 274.021
lradius 68.5686
lwrist -360.35
lhand -35.5576 -666.673
lfingers 7.12502
lthumb -8.68289 1163.13
rfemur -13.6467 11.9329 23.3822
rtibia 37.5893
rfoot -50.0996 -34.8218
rtoes -5.82447
lfemur 122.769 159.408 156.324
ltibia 68.0811
lfoot -21.7868 12.2102
ltoes -23.7416
2394
root 11.8462 14.6599 -10.3568 197.341 -153.109 -540.586
lowerback -1.76019 3.30325 -0.639101
upperback -0.967714 4.41588 -0.410231
thorax -0.022663 2.21031 0.0115107
lowerneck -7.07448 -1.39521 -5.75513
upperneck 11.7973 -1.07589 -1.05752
head 4.73923 -0.850344 0.5445
rclavicle 3.81667e-014 -2.28602e-014
rhumerus -41.2367 46.5046 -107.348
rradius 97.3492
rwrist -63.3691
rhand -19.0014 -349.638
rfingers 7.12502
rthumb 7.30376 -379.492
lclavicle 3.81667e-014 -2.28602e-014
lhumerus -213.723 202.565 272.413
lradius 66.0137
lwrist -358.366
lhand -33.1514 -664.452
lfingers 7.12502
lthumb -6.36042 1165.43
rfemur -12.5032 11.6374 23.7978
rtibia 37.0145
rfoot -50.5126 -34.7833
rtoes -6.24305
lfemur 120.948 159.623 155.235
ltibia 67.2343
lfoot -22.0117 11.801
ltoes -26.0226
2395
root 11.7597 14.6313 -10.2137 197.606 -153.445 -540.732
lowerback -1.68578 3.43504 -0.440737
upperback -0.920742 4.58844 -0.270828
thorax -0.0128258 2.29623 0.0434391
lowerneck -6.73429 -1.48308 -5.79085
upperneck 11.0603 -1.23447 -1.02031
head 4.45917 -0.908386 0.556102
rclavicle -4.90501e-014 2.20651e-014
rhumerus -41.0217 46.5423 -107.196
rradius 96.4336
rwrist -59.0137
rhand -18.4006 -348.754
rfingers 7.12502
rthumb 7.88372 -378.587
lclavicle -4.90501e-014 2.20651e-014
lhumerus -214.288 201.059 270.82
lradius 63.5186
lwrist -355.289
lhand -30.6437 -664.051
lfingers 7.12502
lthumb -3.9391 1165.89
rfemur -11.5983 11.3577 24.1736
rtibia 36.2436
rfoot -50.9071 -34.6571
rtoes -6.34153
lfemur 118.879 160.034 154.275
ltibia 66.0955
lfoot -21.719 11.162
ltoes -27.7016
2396
root 11.6734 14.6001 -10.0557 198.024 -153.686 -540.934
lowerback -1.74443 3.58806 -0.208904
upperback -0.932474 4.78941 -0.204218
thorax 0.0203784 2.39615 -0.00991099
lowerneck -6.53545 -1.59273 -5.83626
upperneck 10.186 -1.41896 -0.87872
head 4.61369 -0.978023 0.659374
rclavicle 9.23355e-014 3.97569e-016
rhumerus -40.6641 46.3634 -107.196
rradius 95.1568
rwrist -53.5157
rhand -18.3257 -347.816
rfingers 7.12502
rthumb 7.95603 -377.647
lclavicle 9.23355e-014 3.97569e-016
lhumerus -215.148 199.477 269.054
lradius 61.2393
lwrist -353.24
lhand -27.7423 -664.75
lfingers 7.12502
lthumb -1.13703 1165.23
rfemur -10.8133 10.9469 24.506
rtibia 35.4369
rfoot -50.8209 -34.7478
rtoes -7.17583
lfemur 116.879 160.635 153.655
ltibia 64.6862
lfoot -21.2354 10.4972
ltoes -27.658
2397
root 11.588 14.5654 -9.88521 198.311 -153.874 -541.143
lowerback -1.69316 3.72204 -0.0159538
upperback -0.874886 4.96524 -0.156779
thorax 0.0626404 2.48357 -0.0661205
lowerneck -6.40715 -1.68675 -6.03414
upperneck 9.71992 -1.58251 -0.498021
head 4.43058 -1.03517 0.816251
rclavicle 1.02275e-013 2.34566e-014
rhumerus -40.0162 46.2704 -107.144
rradius 93.4097
rwrist -47.5943
rhand -18.3794 -346.614
rfingers 7.12502
rthumb 7.90417 -376.446
lclavicle 1.02275e-013 2.34566e-014
lhumerus -216.07 197.798 267.265
lradius 59.0727
lwrist -352.1
lhand -26.2686 -665.439
lfingers 7.12502
lthumb 0.286276 1164.54
rfemur -9.73734 10.4368 24.8282
rtibia 34.4633
rfoot -50.4707 -34.815
rtoes -7.70852
lfemur 115.132 161.315 153.368
ltibia 63.2595
lfoot -20.6116 10.1117
ltoes -26.7199
2398
root 11.5575 14.4966 -9.67953 198.007 -157.642 -539.714
lowerback -1.85252 2.57445 0.651735
upperback -0.754478 3.42443 -0.4595
thorax 0.330446 1.71165 -0.760776
lowerneck -6.41115 -1.81275 -6.10879
upperneck 9.22117 -1.79363 -0.0836684
head 4.26518 -1.10998 0.958511
rclavicle -1.09332e-014 -9.54166e-015
rhumerus -39.0066 46.1546 -106.938
rradius 91.1822
rwrist -42.0989
rhand -18.915 -345.284
rfingers 7.12502
rthumb 7.3872 -375.135
lclavicle -1.09332e-014 -9.54166e-015
lhumerus -217.057 196.15 265.478
lradius 57.0979
lwrist -351.352
lhand -26.0535 -665.89
lfingers 7.12502
lthumb 0.494056 1164.09
rfemur -8.2889 9.41973 25.0665
rtibia 33.4089
rfoot -53.2892 -35.9427
rtoes -5.21317
lfemur 113.51 165.958 152.539
ltibia 61.6924
lfoot -18.9577 9.92532
ltoes -26.5395
2399
root 11.4449 14.4829 -9.49902 198.65 -155.488 -541.006
lowerback -1.59228 3.51 0.559803
upperback -0.671489 4.67472 -0.331761
thorax 0.274714 2.33736 -0.56492
lowerneck -6.56761 -1.92638 -6.11482
upperneck 8.75725 -1.97797 0.30236
head 4.14273 -1.17265 1.07925
rclavicle -9.35282e-014 -1.98785e-016
rhumerus -37.8301 45.9874 -106.636
rradius 88.5271
rwrist -37.0737
rhand -19.8843 -344.026
rfingers 7.12502
rthumb 6.45147 -373.908
lclavicle -9.35282e-014 -1.98785e-016
lhumerus -218.227 194.523 263.69
lradius 55.3583
lwrist -350.684
lhand -26.1843 -666.609
lfingers 7.12502
lthumb 0.367748 1163.37
rfemur -7.13289 8.96081 25.4094
rtibia 32.1846
rfoot -50.44 -35.0874
rtoes -8.20668
lfemur 112.014 164.294 153.254
ltibia 60.3291
lfoot -17.6431 9.93443
ltoes -26.3136
2400
root 11.3352 14.4647 -9.29874 199.123 -153.938 -541.998
lowerback -1.36423 4.19669 0.356155
upperback -0.555455 5.59395 -0.250237
thorax 0.251722 2.79753 -0.364651
lowerneck -6.66354 -1.98709 -6.07021
upperneck 8.26808 -2.09074 0.602584
head 3.99545 -1.20294 1.1657
rclavicle -6.57977e-014 -5.56597e-015
rhumerus -36.585 45.6521 -106.292
rradius 85.3745
rwrist -32.2421
rhand -20.9881 -342.809
rfingers 7.12502
rthumb 5.3858 -372.721
lclavicle -6.57977e-014 -5.56597e-015
lhumerus -219.422 192.973 261.897
lradius 53.7829
lwrist -349.756
lhand -26.36 -666.862
lfingers 7.12502
lthumb 0.198062 1163.12
rfemur -5.75244 8.97554 25.7157
rtibia 31.001
rfoot -48.6099 -34.4715
rtoes -10.446
lfemur 110.777 163.22 153.935
ltibia 59.0497
lfoot -16.6396 10.0257
ltoes -25.6352
2401
root 11.2428 14.4263 -9.07374 199.482 -153.464 -542.512
lowerback -1.27468 4.53793 0.26971
upperback -0.502407 6.05046 -0.278682
thorax 0.254491 3.02597 -0.34334
lowerneck -6.51146 -2.08222 -5.92491
upperneck 7.71099 -2.27067 0.853185
head 3.77599 -1.26577 1.21399
rclavicle -6.04305e-014 2.60408e-014
rhumerus -35.3896 44.9864 -105.892
rradius 81.7855
rwrist -27.7172
rhand -22.3123 -341.678
rfingers 7.12502
rthumb 4.10723 -371.618
lclavicle -6.04305e-014 2.60408e-014
lhumerus -220.676 191.739 260.288
lradius 52.4344
lwrist -348.306
lhand -26.3952 -666.089
lfingers 7.12502
lthumb 0.16409 1163.89
rfemur -4.32041 8.51362 25.8835
rtibia 29.7279
rfoot -46.9201 -34.3594
rtoes -13.1849
lfemur 109.598 163.332 154.476
ltibia 58.012
lfoot -16.0838 10.2267
ltoes -25.5226
2402
root 11.1596 14.378 -8.82519 199.808 -153.405 -542.996
lowerback -1.21648 4.77278 0.342851
upperback -0.444076 6.36285 -0.267917
thorax 0.291083 3.18227 -0.369193
lowerneck -6.42395 -2.22418 -5.93784
upperneck 7.21538 -2.49347 1.14989
head 3.59971 -1.35529 1.30359
rclavicle 3.9906e-014 -1.39149e-014
rhumerus -34.4399 44.0084 -105.331
rradius 78.1469
rwrist -23.5451
rhand -23.9267 -340.609
rfingers 7.12502
rthumb 2.54811 -370.574
lclavicle 3.9906e-014 -1.39149e-014
lhumerus -221.991 190.684 259.011
lradius 51.2438
lwrist -346.177
lhand -27.0153 -665.133
lfingers 7.12502
lthumb -0.434843 1164.85
rfemur -2.86029 7.49149 26.0388
rtibia 28.6131
rfoot -44.934 -34.1598
rtoes -16.5566
lfemur 108.626 163.821 155.146
ltibia 57.2537
lfoot -15.8714 10.2703
ltoes -25.9586
2403
root 11.0752 14.3357 -8.55474 200.092 -153.346 -543.626
lowerback -1.17701 5.02738 0.522536
upperback -0.2891 6.6996 -0.201725
thorax 0.443605 3.35103 -0.388807
lowerneck -6.56655 -2.38777 -6.06831
upperneck 6.78073 -2.71605 1.44899
head 3.49478 -1.44938 1.41405
rclavicle -6.92765e-014 1.03368e-014
rhumerus -33.6654 42.5998 -104.547
rradius 74.7522
rwrist -20.09
rhand -25.3248 -339.843
rfingers 7.12502
rthumb 1.19788 -369.819
lclavicle -6.92765e-014 1.03368e-014
lhumerus -223.03 189.552 257.823
lradius 49.9542
lwrist -343.952
lhand -27.9129 -665.038
lfingers 7.12502
lthumb -1.3018 1164.94
rfemur -1.33093 6.4877 26.2083
rtibia 27.7334
rfoot -42.9205 -33.599
rtoes -19.8352
lfemur 107.907 164.168 155.937
ltibia 56.8884
lfoot -15.9849 9.90592
ltoes -26.3993
2404
root 10.9928 14.2979 -8.26258 200.299 -153.403 -544.166
lowerback -1.12916 5.24406 0.662365
upperback -0.158279 6.98618 -0.151807
thorax 0.564647 3.49482 -0.40556
lowerneck -6.62837 -2.52628 -6.11812
upperneck 6.34406 -2.91218 1.69185
head 3.37049 -1.53123 1.4929
rclavicle -5.76476e-015 2.78299e-015
rhumerus -33.4109 40.6303 -103.746
rradius 71.8751
rwrist -17.7244
rhand -26.1684 -339.466
rfingers 7.12502
rthumb 0.383105 -369.446
lclavicle -5.76476e-015 2.78299e-015
lhumerus -223.89 188.217 256.573
lradius 48.5252
lwrist -342.724
lhand -27.5339 -665.439
lfingers 7.12502
lthumb -0.935782 1164.54
rfemur 0.175399 5.47594 26.2045
rtibia 27.0842
rfoot -40.677 -32.8953
rtoes -22.8626
lfemur 107.352 164.701 156.69
ltibia 56.9429
lfoot -16.1088 9.48816
ltoes -27.2756
